<svg width="56" height="59" viewBox="0 0 56 59" fill="none" xmlns="http://www.w3.org/2000/svg">
<g filter="url(#filter0_d_5_341)">
<path d="M43.5 47H34.5C33.119 47 32 45.881 32 44.5V35.5C32 34.395 31.105 33.5 30 33.5H26C24.895 33.5 24 34.395 24 35.5V44.5C24 45.881 22.881 47 21.5 47H12.5C11.119 47 10 45.881 10 44.5V25.413C10 23.114 11.054 20.942 12.859 19.52L27.071 8.321C27.616 7.893 28.384 7.893 28.928 8.321L43.142 19.52C44.947 20.942 46 23.113 46 25.411V44.5C46 45.881 44.881 47 43.5 47Z" fill="white"/>
</g>
<defs>
<filter id="filter0_d_5_341" x="0" y="0" width="56" height="59" filterUnits="userSpaceOnUse" color-interpolation-filters="sRGB">
<feFlood flood-opacity="0" result="BackgroundImageFix"/>
<feColorMatrix in="SourceAlpha" type="matrix" values="0 0 0 0 0 0 0 0 0 0 0 0 0 0 0 0 0 0 127 0" result="hardAlpha"/>
<feOffset dy="2"/>
<feGaussianBlur stdDeviation="5"/>
<feComposite in2="hardAlpha" operator="out"/>
<feColorMatrix type="matrix" values="0 0 0 0 0 0 0 0 0 0 0 0 0 0 0 0 0 0 0.1 0"/>
<feBlend mode="normal" in2="BackgroundImageFix" result="effect1_dropShadow_5_341"/>
<feBlend mode="normal" in="SourceGraphic" in2="effect1_dropShadow_5_341" result="shape"/>
</filter>
</defs>
</svg>
