<svg width="273" height="68" viewBox="0 0 273 68" fill="none" xmlns="http://www.w3.org/2000/svg">
<g filter="url(#filter0_d_6_522)">
<path d="M16.356 51.3709C16.1676 54.2196 15.1319 55.7626 13.2486 56C12.3698 56 11.6008 55.5727 10.9416 54.7181C10.3139 53.816 10 52.7003 10 51.3709V17.7567C10.0314 16.4273 10.361 15.3353 10.9887 14.4807C11.6165 13.5786 12.3698 13.1276 13.2486 13.1276H33.0227C35.7848 13.27 37.8721 14.1958 39.2845 15.905C40.697 17.5668 41.7171 19.4659 42.3448 21.6024C42.9726 23.7389 43.2864 25.8991 43.2864 28.0831C43.2864 30.362 42.9726 32.5697 42.3448 34.7062C41.7484 36.8427 40.7283 38.7656 39.2845 40.4748C37.8721 42.1365 36.0673 42.9436 33.8702 42.8961H22.0057C21.1269 42.8961 20.3893 42.4214 19.7929 41.4718C19.1651 40.5697 18.8513 39.454 18.8513 38.1246C18.8513 36.7953 19.1495 35.6795 19.7458 34.7774C20.3736 33.8279 21.1269 33.3531 22.0057 33.3531H34.1527C34.749 33.3531 35.2355 33.0683 35.6122 32.4985C36.0202 31.8813 36.3184 31.1929 36.5067 30.4332C36.6951 29.6261 36.7892 28.819 36.7892 28.0119C36.7892 27.2522 36.6951 26.4926 36.5067 25.7329C36.3184 24.9258 36.0202 24.2374 35.6122 23.6677C35.2355 23.0504 34.749 22.7181 34.1527 22.6706H17.5801C16.764 22.7181 16.356 23.3353 16.356 24.5223V51.3709Z" fill="url(#paint0_linear_6_522)"/>
<path d="M51.5256 22.1009C52.3731 22.1484 53.095 22.6231 53.6914 23.5252C54.2877 24.3798 54.6016 25.4481 54.633 26.73V51.3709C54.4447 54.2196 53.4089 55.7626 51.5256 56C50.6468 56 49.8778 55.5727 49.2187 54.7181C48.5909 53.816 48.277 52.7003 48.277 51.3709V26.73C48.3084 25.4006 48.638 24.3086 49.2657 23.454C49.8935 22.5519 50.6468 22.1009 51.5256 22.1009ZM47.5708 12.8427C47.5708 11.5134 47.9475 10.3739 48.7008 9.42433C49.4541 8.47478 50.3643 8 51.4315 8C52.4987 8 53.4089 8.47478 54.1622 9.42433C54.9155 10.3739 55.2921 11.5134 55.2921 12.8427C55.2921 14.2196 54.9155 15.3828 54.1622 16.3323C53.4089 17.2819 52.4987 17.7567 51.4315 17.7567C50.3643 17.7567 49.4541 17.2819 48.7008 16.3323C47.9475 15.3828 47.5708 14.2196 47.5708 12.8427Z" fill="url(#paint1_linear_6_522)"/>
<path d="M69.9344 55.1454C67.1723 55.003 65.085 54.0297 63.6726 52.2255C62.2602 50.3739 61.2401 48.3086 60.6123 46.0297C59.9846 43.7033 59.6707 41.3531 59.6707 38.9792C59.6707 36.5104 59.9689 34.1365 60.5652 31.8576C61.193 29.5312 62.2131 27.4659 63.6255 25.6617C65.0693 23.8101 66.8898 22.8605 69.0869 22.8131H86.9778C87.8567 22.8131 88.5943 23.2878 89.1906 24.2374C89.8184 25.1395 90.1322 26.2552 90.1322 27.5846C90.1322 28.9139 89.8184 30.0534 89.1906 31.003C88.5943 31.905 87.8567 32.3561 86.9778 32.3561H68.8986C68.3022 32.3561 67.7844 32.7359 67.3449 33.4955C66.9055 34.2077 66.5759 35.0623 66.3562 36.0593C66.1679 37.0089 66.0737 37.9585 66.0737 38.908C66.0737 39.905 66.1679 40.9021 66.3562 41.8991C66.5759 42.8487 66.9055 43.7033 67.3449 44.4629C67.7844 45.1751 68.3022 45.5549 68.8986 45.6024H86.9778C87.8567 45.6024 88.5943 46.0772 89.1906 47.0267C89.8184 47.9288 90.1322 49.0445 90.1322 50.3739C90.1322 51.7033 89.8184 52.819 89.1906 53.7211C88.5943 54.6706 87.8567 55.1454 86.9778 55.1454H69.9344Z" fill="url(#paint2_linear_6_522)"/>
<path d="M105.292 11.9881C106.171 11.9881 106.925 12.4392 107.552 13.3412C108.18 14.1958 108.51 15.2878 108.541 16.6172V22.8131H124.549C125.427 22.8131 126.181 23.2641 126.809 24.1662C127.405 25.1157 127.703 26.2552 127.703 27.5846C127.703 28.9139 127.389 30.0534 126.761 31.003C126.165 31.905 125.427 32.3561 124.549 32.3561H108.541V33.7804C108.51 35.727 108.588 37.5312 108.776 39.1929C108.996 40.8071 109.498 42.2552 110.283 43.5371C111.068 44.819 112.056 45.5074 113.249 45.6024H124.737C125.616 45.6498 126.338 46.1484 126.903 47.0979C127.499 48.0475 127.797 49.1869 127.797 50.5163C127.766 51.7982 127.452 52.8902 126.856 53.7923C126.291 54.6469 125.584 55.0979 124.737 55.1454H111.648C109.451 54.9555 107.631 53.8398 106.187 51.7982C104.775 49.7092 103.754 47.1691 103.127 44.178C102.53 41.1869 102.216 38.0059 102.185 34.635V32.3561H96.7707C95.8918 32.3561 95.1542 31.8813 94.5579 30.9318C93.9301 30.0297 93.6163 28.9139 93.6163 27.5846C93.6163 26.2552 93.9144 25.1395 94.5108 24.2374C95.1385 23.2878 95.8918 22.8131 96.7707 22.8131H102.185V16.6172C102.216 15.3353 102.53 14.2671 103.127 13.4125C103.723 12.5104 104.445 12.0356 105.292 11.9881Z" fill="url(#paint3_linear_6_522)"/>
<path d="M142.063 55.1454C139.301 55.003 137.213 54.0297 135.801 52.2255C134.389 50.3739 133.369 48.3086 132.741 46.0297C132.113 43.7033 131.799 41.3531 131.799 38.9792C131.799 36.5104 132.097 34.1365 132.694 31.8576C133.321 29.5312 134.342 27.4659 135.754 25.6617C137.198 23.8101 139.018 22.8605 141.215 22.8131H156.47C158.667 22.8605 160.472 23.8101 161.884 25.6617C163.328 27.4659 164.348 29.5312 164.944 31.8576C165.572 34.1365 165.886 36.5104 165.886 38.9792C165.886 41.3531 165.572 43.7033 164.944 46.0297C164.317 48.3086 163.296 50.3739 161.884 52.2255C160.472 54.0297 158.384 55.003 155.622 55.1454H142.063ZM141.027 32.3561C140.431 32.3561 139.913 32.7359 139.473 33.4955C139.034 34.2077 138.704 35.0623 138.485 36.0593C138.296 37.0089 138.202 37.9585 138.202 38.908C138.202 39.905 138.296 40.9021 138.485 41.8991C138.704 42.8487 139.034 43.7033 139.473 44.4629C139.913 45.1751 140.431 45.5549 141.027 45.6024H156.658C157.254 45.5549 157.772 45.1751 158.212 44.4629C158.651 43.7033 158.965 42.8487 159.153 41.8991C159.373 40.9021 159.483 39.905 159.483 38.908C159.483 37.9585 159.373 37.0089 159.153 36.0593C158.965 35.0623 158.651 34.2077 158.212 33.4955C157.772 32.7359 157.254 32.3561 156.658 32.3561H141.027Z" fill="url(#paint4_linear_6_522)"/>
</g>
<g filter="url(#filter1_d_6_522)">
<path d="M155.744 51.115C154.309 47.8584 152.874 43.587 151.439 38.3009L146.29 18.1947C146.134 17.6755 146.041 17.1091 146.009 16.4956C145.947 15.174 146.197 14.0413 146.758 13.0973C147.351 12.1534 148.1 11.6814 149.005 11.6814C149.972 11.6814 150.69 12.0118 151.158 12.6726C151.657 13.2861 152.063 14.0885 152.375 15.0796L156.821 33.4867C157.32 35.4218 157.804 37.2625 158.272 39.0088C158.771 40.708 159.317 42.2655 159.91 43.6814C160.503 45.0973 161.174 45.8525 161.923 45.9469C162.64 45.8525 163.28 45.0973 163.841 43.6814C164.466 42.2655 165.012 40.708 165.48 39.0088C165.979 37.2625 166.478 35.4218 166.977 33.4867L171.33 15.0796C171.642 14.0885 172.032 13.2861 172.5 12.6726C172.999 12.0118 173.764 11.6814 174.793 11.6814C175.698 11.6814 176.432 12.1534 176.993 13.0973C177.586 14.0413 177.851 15.174 177.789 16.4956C177.758 17.1091 177.664 17.6755 177.508 18.1947L172.36 38.3009C170.924 43.6814 169.489 47.9764 168.054 51.1858C166.65 54.3481 164.606 55.9528 161.923 56C159.208 55.9528 157.149 54.3245 155.744 51.115Z" fill="white"/>
<path d="M185.839 22.0177C186.682 22.0649 187.399 22.5369 187.992 23.4336C188.585 24.2832 188.897 25.3451 188.928 26.6195V51.115C188.741 53.9469 187.711 55.4808 185.839 55.7168C184.965 55.7168 184.201 55.292 183.546 54.4425C182.922 53.5457 182.61 52.4366 182.61 51.115V26.6195C182.641 25.2979 182.968 24.2124 183.593 23.3628C184.217 22.4661 184.965 22.0177 185.839 22.0177ZM181.908 12.8142C181.908 11.4926 182.282 10.3599 183.031 9.41593C183.78 8.47198 184.685 8 185.745 8C186.806 8 187.711 8.47198 188.46 9.41593C189.209 10.3599 189.583 11.4926 189.583 12.8142C189.583 14.1829 189.209 15.3392 188.46 16.2832C187.711 17.2271 186.806 17.6991 185.745 17.6991C184.685 17.6991 183.78 17.2271 183.031 16.2832C182.282 15.3392 181.908 14.1829 181.908 12.8142Z" fill="white"/>
<path d="M200.957 16.5664V43.5398C200.957 44.7198 201.362 45.3333 202.174 45.3805H218.555C219.148 45.3333 219.662 44.9558 220.099 44.2478C220.536 43.4926 220.848 42.6431 221.035 41.6991C221.254 40.708 221.363 39.7168 221.363 38.7257C221.363 37.7817 221.254 36.8378 221.035 35.8938C220.848 34.9027 220.536 34.0531 220.099 33.3451C219.662 32.59 219.148 32.2124 218.555 32.2124H206.573C205.699 32.2124 204.951 31.764 204.326 30.8673C203.734 29.9233 203.437 28.7906 203.437 27.469C203.437 26.1475 203.749 25.0383 204.373 24.1416C204.966 23.1976 205.699 22.7257 206.573 22.7257H218.368C220.552 22.7729 222.346 23.7168 223.75 25.5575C225.185 27.351 226.199 29.4041 226.792 31.7168C227.416 33.9823 227.728 36.3422 227.728 38.7965C227.728 41.1563 227.416 43.4926 226.792 45.8053C226.168 48.0708 225.154 50.1239 223.75 51.9646C222.346 53.7581 220.271 54.7257 217.525 54.8673H197.868C196.994 54.8673 196.245 54.4425 195.621 53.5929C194.997 52.6962 194.669 51.587 194.638 50.2655V16.5664C194.638 15.2448 194.95 14.1593 195.574 13.3097C196.229 12.413 196.994 11.9646 197.868 11.9646C199.74 12.2006 200.769 13.7345 200.957 16.5664Z" fill="white"/>
<path d="M242.378 54.8673C239.632 54.7257 237.557 53.7581 236.153 51.9646C234.749 50.1239 233.735 48.0708 233.111 45.8053C232.487 43.4926 232.175 41.1563 232.175 38.7965C232.175 36.3422 232.471 33.9823 233.064 31.7168C233.688 29.4041 234.702 27.351 236.106 25.5575C237.541 23.7168 239.351 22.7729 241.535 22.7257H259.321C260.194 22.7257 260.927 23.174 261.52 24.0708C262.144 24.9204 262.456 25.9587 262.456 27.1858C262.456 28.4602 262.144 29.5457 261.52 30.4425C260.927 31.292 260.194 31.7168 259.321 31.7168H241.816C241.13 31.7168 240.521 32.0708 239.991 32.7788C239.491 33.4867 239.117 34.4071 238.867 35.5398C238.649 36.6726 238.54 37.7817 238.54 38.8673C238.54 40.0472 238.649 41.2035 238.867 42.3363C239.117 43.469 239.491 44.3894 239.991 45.0973C240.521 45.7581 241.13 46.1121 241.816 46.1593H259.321C260.194 46.1593 260.927 46.5841 261.52 47.4336C262.144 48.2832 262.456 49.2979 262.456 50.4779C262.456 51.705 262.144 52.7434 261.52 53.5929C260.927 54.4425 260.194 54.8673 259.321 54.8673H242.378ZM261.895 38.6549C261.895 39.5516 261.63 40.3304 261.099 40.9911C260.631 41.6047 260.038 41.9115 259.321 41.9115H244.016C243.298 41.9115 242.69 41.6047 242.19 40.9911C241.691 40.3304 241.442 39.5516 241.442 38.6549C241.442 37.8053 241.691 37.0501 242.19 36.3894C242.69 35.7758 243.298 35.469 244.016 35.469H259.321C260.038 35.469 260.647 35.7994 261.146 36.4602C261.645 37.0737 261.895 37.8053 261.895 38.6549Z" fill="white"/>
</g>
<defs>
<filter id="filter0_d_6_522" x="0" y="0" width="175.886" height="68" filterUnits="userSpaceOnUse" color-interpolation-filters="sRGB">
<feFlood flood-opacity="0" result="BackgroundImageFix"/>
<feColorMatrix in="SourceAlpha" type="matrix" values="0 0 0 0 0 0 0 0 0 0 0 0 0 0 0 0 0 0 127 0" result="hardAlpha"/>
<feOffset dy="2"/>
<feGaussianBlur stdDeviation="5"/>
<feComposite in2="hardAlpha" operator="out"/>
<feColorMatrix type="matrix" values="0 0 0 0 0 0 0 0 0 0 0 0 0 0 0 0 0 0 0.2 0"/>
<feBlend mode="normal" in2="BackgroundImageFix" result="effect1_dropShadow_6_522"/>
<feBlend mode="normal" in="SourceGraphic" in2="effect1_dropShadow_6_522" result="shape"/>
</filter>
<filter id="filter1_d_6_522" x="136" y="0" width="136.456" height="68" filterUnits="userSpaceOnUse" color-interpolation-filters="sRGB">
<feFlood flood-opacity="0" result="BackgroundImageFix"/>
<feColorMatrix in="SourceAlpha" type="matrix" values="0 0 0 0 0 0 0 0 0 0 0 0 0 0 0 0 0 0 127 0" result="hardAlpha"/>
<feOffset dy="2"/>
<feGaussianBlur stdDeviation="5"/>
<feComposite in2="hardAlpha" operator="out"/>
<feColorMatrix type="matrix" values="0 0 0 0 0 0 0 0 0 0 0 0 0 0 0 0 0 0 0.2 0"/>
<feBlend mode="normal" in2="BackgroundImageFix" result="effect1_dropShadow_6_522"/>
<feBlend mode="normal" in="SourceGraphic" in2="effect1_dropShadow_6_522" result="shape"/>
</filter>
<linearGradient id="paint0_linear_6_522" x1="10" y1="8" x2="166" y2="56" gradientUnits="userSpaceOnUse">
<stop stop-color="#B05CF3"/>
<stop offset="1" stop-color="#FFBD3D"/>
</linearGradient>
<linearGradient id="paint1_linear_6_522" x1="10" y1="8" x2="166" y2="56" gradientUnits="userSpaceOnUse">
<stop stop-color="#B05CF3"/>
<stop offset="1" stop-color="#FFBD3D"/>
</linearGradient>
<linearGradient id="paint2_linear_6_522" x1="10" y1="8" x2="166" y2="56" gradientUnits="userSpaceOnUse">
<stop stop-color="#B05CF3"/>
<stop offset="1" stop-color="#FFBD3D"/>
</linearGradient>
<linearGradient id="paint3_linear_6_522" x1="10" y1="8" x2="166" y2="56" gradientUnits="userSpaceOnUse">
<stop stop-color="#B05CF3"/>
<stop offset="1" stop-color="#FFBD3D"/>
</linearGradient>
<linearGradient id="paint4_linear_6_522" x1="10" y1="8" x2="166" y2="56" gradientUnits="userSpaceOnUse">
<stop stop-color="#B05CF3"/>
<stop offset="1" stop-color="#FFBD3D"/>
</linearGradient>
</defs>
</svg>
