<svg width="15" height="16" viewBox="0 0 15 16" fill="none" xmlns="http://www.w3.org/2000/svg">
<path d="M4.88889 3.33333L7.22222 1M7.22222 1L9.55556 3.33333M7.22222 1V8.77778M3.33351 6.44444C2.60872 6.44444 2.24632 6.44444 1.96045 6.56282C1.5793 6.72071 1.27629 7.02373 1.11841 7.40492C1 7.69076 1 8.05297 1 8.77778V12.5111C1 13.3823 1 13.8176 1.16955 14.1504C1.31868 14.443 1.55648 14.6815 1.84918 14.8306C2.1816 15 2.61699 15 3.48649 15H10.9584C11.8278 15 12.2626 15 12.595 14.8306C12.8877 14.6815 13.1259 14.443 13.275 14.1504C13.4444 13.8179 13.4444 13.383 13.4444 12.5135V8.77778C13.4444 8.05297 13.4444 7.69076 13.326 7.40492C13.1681 7.02373 12.8653 6.72071 12.4842 6.56282C12.1983 6.44444 11.8359 6.44444 11.1111 6.44444" stroke="white" stroke-width="2" stroke-linecap="round" stroke-linejoin="round"/>
</svg>
