<svg width="17" height="18" viewBox="0 0 17 18" fill="none" xmlns="http://www.w3.org/2000/svg">
<path d="M5.44444 3.66667L8.11111 1M8.11111 1L10.7778 3.66667M8.11111 1V9.88889M3.66687 7.22222C2.83853 7.22222 2.42436 7.22222 2.09765 7.35751C1.66205 7.53796 1.31576 7.88427 1.13532 8.31991C1 8.64658 1 9.06053 1 9.88889V14.1556C1 15.1512 1 15.6487 1.19377 16.029C1.3642 16.3635 1.63597 16.636 1.97049 16.8064C2.3504 17 2.84799 17 3.8417 17H12.381C13.3747 17 13.8716 17 14.2515 16.8064C14.586 16.636 14.8582 16.3635 15.0286 16.029C15.2222 15.6491 15.2222 15.152 15.2222 14.1583V9.88889C15.2222 9.06053 15.2221 8.64658 15.0868 8.31991C14.9064 7.88427 14.5604 7.53796 14.1248 7.35751C13.798 7.22222 13.3839 7.22222 12.5556 7.22222" stroke="#393939" stroke-width="2" stroke-linecap="round" stroke-linejoin="round"/>
</svg>
